<?xml version="1.0" encoding="UTF-8"?>
<svg version="1.1" xmlns="http://www.w3.org/2000/svg" width="200" height="200">
<path d="M0 0 C54.12 0 108.24 0 164 0 C164 29.04 164 58.08 164 88 C109.88 88 55.76 88 0 88 C0 58.96 0 29.92 0 0 Z M30.59765625 30.78125 C26.41817534 36.58551688 26.09440761 43.04769176 27 50 C29.4751777 57.7017806 33.79536578 63.20077955 40.91015625 67.02734375 C47.21137665 69.74576289 53.59964345 69.99133186 60.125 67.875 C67.22748913 64.84724567 71.79282745 59.92749272 75 53 C75 51.68 75 50.36 75 49 C79.62 49 84.24 49 89 49 C89.495 51.97 89.495 51.97 90 55 C93.65338967 61.6302257 98.687348 66.12032458 105.87109375 68.4921875 C113.44127449 70.29791868 120.31423618 68.9451532 127 65 C132.42441584 60.30833827 136.42952274 54.6850445 137.3125 47.43359375 C137.65942059 39.63872182 136.25492823 33.58227395 130.94140625 27.734375 C124.64101762 21.82709663 119.56999838 19.76313009 110.85229492 19.70947266 C110.16361832 19.70275543 109.47494171 19.69603821 108.76539612 19.68911743 C106.5036789 19.67022334 104.24225983 19.66621754 101.98046875 19.6640625 C100.39634584 19.65762818 98.81222411 19.65089936 97.22810364 19.64389038 C93.91205086 19.63193879 90.59610208 19.62820733 87.2800293 19.62939453 C83.05014601 19.62959751 78.8209362 19.60230866 74.59121227 19.56785011 C71.31990044 19.54550986 68.04874882 19.54155917 64.77736855 19.54261398 C63.21898391 19.54026823 61.66059417 19.53150301 60.10228539 19.51594925 C47.37959729 19.40085633 38.90848629 20.60337464 30.59765625 30.78125 Z " fill="#9230FE" transform="translate(18,40)"/>
<path d="M0 0 C1.12792969 -0.01417969 2.25585938 -0.02835938 3.41796875 -0.04296875 C6.98107077 0.19894497 9.59106649 0.63505809 12.8125 2.1875 C14.85871795 5.62138299 15.08466562 8.74201978 15.0625 12.6875 C15.06765625 13.6053125 15.0728125 14.523125 15.078125 15.46875 C14.78623366 18.45634369 14.24207495 20.54550073 12.8125 23.1875 C9.38569743 25.89801129 5.29686461 25.45041906 1.125 25.375 C0.43599609 25.37435547 -0.25300781 25.37371094 -0.96289062 25.37304688 C-6.04694475 25.32805525 -6.04694475 25.32805525 -7.1875 24.1875 C-7.28682153 22.49191274 -7.31830007 20.79224253 -7.3203125 19.09375 C-7.32224609 17.54880859 -7.32224609 17.54880859 -7.32421875 15.97265625 C-7.32035156 14.88855469 -7.31648437 13.80445313 -7.3125 12.6875 C-7.31636719 11.60339844 -7.32023438 10.51929688 -7.32421875 9.40234375 C-7.32292969 8.37238281 -7.32164062 7.34242188 -7.3203125 6.28125 C-7.31918457 5.32927734 -7.31805664 4.37730469 -7.31689453 3.39648438 C-7.05124152 -1.13866364 -3.8559881 0.02178524 0 0 Z M1.8125 7.1875 C1.8125 10.8175 1.8125 14.4475 1.8125 18.1875 C3.1325 18.1875 4.4525 18.1875 5.8125 18.1875 C5.8125 14.5575 5.8125 10.9275 5.8125 7.1875 C4.4925 7.1875 3.1725 7.1875 1.8125 7.1875 Z " fill="#9F48FF" transform="translate(142.1875,134.8125)"/>
<path d="M0 0 C0.94488281 -0.03738281 1.88976563 -0.07476562 2.86328125 -0.11328125 C6.66686666 0.46015002 8.16614541 1.39732521 10.6875 4.3125 C11.36111895 7.19028111 11.29671051 9.93376246 11.1875 12.875 C11.19136719 14.02645508 11.19136719 14.02645508 11.1953125 15.20117188 C11.09877035 20.73786392 11.09877035 20.73786392 9.28125 23.27734375 C6.0105864 25.40167182 3.70568844 25.50538721 -0.1875 25.5625 C-1.76144531 25.60117188 -1.76144531 25.60117188 -3.3671875 25.640625 C-6.82701317 25.25518023 -8.1183992 25.04339981 -10.3125 22.3125 C-10.87861868 19.30099817 -10.82444924 16.3673203 -10.75 13.3125 C-10.75708984 12.49265625 -10.76417969 11.6728125 -10.77148438 10.828125 C-10.70735318 4.78992652 -10.70735318 4.78992652 -8.91040039 2.6171875 C-5.955204 0.20426626 -3.7531909 0.09649611 0 0 Z M-2.3125 7.3125 C-2.3125 10.9425 -2.3125 14.5725 -2.3125 18.3125 C-0.6625 18.3125 0.9875 18.3125 2.6875 18.3125 C2.6875 15.0125 2.6875 11.7125 2.6875 8.3125 C1.0375 7.9825 -0.6125 7.6525 -2.3125 7.3125 Z " fill="#983AFF" transform="translate(29.3125,134.6875)"/>
<path d="M0 0 C0.94488281 -0.04898438 1.88976562 -0.09796875 2.86328125 -0.1484375 C6.91365742 0.60225462 8.27882037 2.07117372 10.6875 5.375 C11.13790709 8.32042533 11.30426045 10.58629612 11.1875 13.5 C11.19136719 14.57314453 11.19136719 14.57314453 11.1953125 15.66796875 C11.13901274 18.68000598 11.08701792 20.82677263 9.28125 23.3046875 C6.03024602 25.48795978 3.71328576 25.56777576 -0.1875 25.625 C-1.76144531 25.66367188 -1.76144531 25.66367188 -3.3671875 25.703125 C-6.82701317 25.31768023 -8.1183992 25.10589981 -10.3125 22.375 C-10.87861868 19.36349817 -10.82444924 16.4298203 -10.75 13.375 C-10.75708984 12.55515625 -10.76417969 11.7353125 -10.77148438 10.890625 C-10.70735318 4.85242652 -10.70735318 4.85242652 -8.91040039 2.6796875 C-5.97051746 0.27926972 -3.7354457 0.13142299 0 0 Z M-2.3125 7.375 C-2.3125 11.005 -2.3125 14.635 -2.3125 18.375 C-0.6625 18.375 0.9875 18.375 2.6875 18.375 C2.6875 15.075 2.6875 11.775 2.6875 8.375 C1.0375 8.045 -0.6125 7.715 -2.3125 7.375 Z " fill="#983AFF" transform="translate(170.3125,134.625)"/>
<path d="M0 0 C1.51400391 0.01740234 1.51400391 0.01740234 3.05859375 0.03515625 C4.07050781 0.04417969 5.08242187 0.05320313 6.125 0.0625 C7.29869141 0.07990234 7.29869141 0.07990234 8.49609375 0.09765625 C9.14444029 1.36720925 9.7896719 2.63835331 10.43359375 3.91015625 C10.79324219 4.61785156 11.15289062 5.32554687 11.5234375 6.0546875 C13.53598252 10.28184029 13.60117913 13.64334965 13.55859375 18.28515625 C13.54957031 19.55746094 13.54054688 20.82976562 13.53125 22.140625 C13.51964844 23.11644531 13.50804688 24.09226563 13.49609375 25.09765625 C11.163146 25.14007348 8.82906808 25.13858562 6.49609375 25.09765625 C5.49609375 24.09765625 5.49609375 24.09765625 5.43359375 21.53515625 C5.45421875 20.73078125 5.47484375 19.92640625 5.49609375 19.09765625 C3.84609375 19.09765625 2.19609375 19.09765625 0.49609375 19.09765625 C0.51671875 19.90203125 0.53734375 20.70640625 0.55859375 21.53515625 C0.49609375 24.09765625 0.49609375 24.09765625 -0.50390625 25.09765625 C-2.83688058 25.13858562 -5.1709585 25.14007348 -7.50390625 25.09765625 C-7.96254186 16.25618081 -7.79050195 8.99945314 -3.50390625 1.09765625 C-2.50390625 0.09765625 -2.50390625 0.09765625 0 0 Z M2.49609375 7.09765625 C2.16609375 8.74765625 1.83609375 10.39765625 1.49609375 12.09765625 C2.48609375 12.09765625 3.47609375 12.09765625 4.49609375 12.09765625 C4.16609375 10.44765625 3.83609375 8.79765625 3.49609375 7.09765625 C3.16609375 7.09765625 2.83609375 7.09765625 2.49609375 7.09765625 Z " fill="#9B41FF" transform="translate(95.50390625,134.90234375)"/>
<path d="M0 0 C3.5 0.125 3.5 0.125 4.5 1.125 C4.73678716 3.81735776 4.92198025 6.48998156 5.0625 9.1875 C5.10568359 9.94611328 5.14886719 10.70472656 5.19335938 11.48632812 C5.29973633 13.36565438 5.40039934 15.24530244 5.5 17.125 C6.16 17.125 6.82 17.125 7.5 17.125 C7.59087891 15.40990234 7.59087891 15.40990234 7.68359375 13.66015625 C7.76798428 12.16925695 7.85263302 10.67837225 7.9375 9.1875 C7.97681641 8.43275391 8.01613281 7.67800781 8.05664062 6.90039062 C8.38671875 1.23828125 8.38671875 1.23828125 9.5 0.125 C12.5 0 12.5 0 15.5 0.125 C17.3880316 2.0130316 16.80430753 5.03660377 16.875 7.5625 C16.86026534 14.76037925 15.19985702 19.02023592 11.5 25.125 C7.87 25.125 4.24 25.125 0.5 25.125 C-3.51152766 17.04463714 -5.57834657 10.19851611 -4.5 1.125 C-3.5 0.125 -3.5 0.125 0 0 Z " fill="#9C43FF" transform="translate(68.5,134.875)"/>
<path d="M0 0 C0.98226562 -0.00257813 1.96453125 -0.00515625 2.9765625 -0.0078125 C5.375 0.125 5.375 0.125 6.375 1.125 C6.41580783 3.12458364 6.41754356 5.12545254 6.375 7.125 C3.075 7.125 -0.225 7.125 -3.625 7.125 C-3.625 7.785 -3.625 8.445 -3.625 9.125 C-2.7175 9.08375 -1.81 9.0425 -0.875 9 C2.27140926 9.12101574 3.79656198 9.40604132 6.375 11.125 C7.96270472 14.30040944 7.78600302 17.66690559 7.375 21.125 C5.83161909 23.29976401 4.73834727 23.94332637 2.375 25.125 C0.00097499 25.19616382 -2.37500677 25.20909085 -4.75 25.1875 C-6.03132813 25.17847656 -7.31265625 25.16945312 -8.6328125 25.16015625 C-10.11394531 25.14275391 -10.11394531 25.14275391 -11.625 25.125 C-11.625 22.815 -11.625 20.505 -11.625 18.125 C-8.325 17.795 -5.025 17.465 -1.625 17.125 C-4.65234375 16.44140625 -4.65234375 16.44140625 -7.6796875 15.7578125 C-9.625 15.125 -9.625 15.125 -11.625 13.125 C-11.92578125 11.06640625 -11.92578125 11.06640625 -11.9375 8.6875 C-11.95425781 7.90503906 -11.97101562 7.12257812 -11.98828125 6.31640625 C-11.53892045 3.60574592 -10.78323513 2.77779365 -8.625 1.125 C-5.50870851 0.08623617 -3.2655571 -0.00861625 0 0 Z " fill="#9B41FF" transform="translate(54.625,134.875)"/>
<path d="M0 0 C2.9375 0.1875 2.9375 0.1875 3.9375 1.1875 C4.01075168 4.05017567 4.02988205 6.888219 4 9.75 C3.99548828 10.55630859 3.99097656 11.36261719 3.98632812 12.19335938 C3.97450518 14.19143756 3.95656914 16.18947783 3.9375 18.1875 C4.9275 18.1875 5.9175 18.1875 6.9375 18.1875 C7.2675 15.8775 7.5975 13.5675 7.9375 11.1875 C9.93704746 11.14495644 11.93791636 11.14669217 13.9375 11.1875 C14.9375 12.1875 14.9375 12.1875 15.03515625 15.12890625 C15.00260417 18.48177083 14.97005208 21.83463542 14.9375 25.1875 C8.6675 25.1875 2.3975 25.1875 -4.0625 25.1875 C-5.94769529 21.41710943 -5.24725994 16.83595405 -5.25 12.6875 C-5.26224609 11.71167969 -5.27449219 10.73585937 -5.28710938 9.73046875 C-5.28904297 8.79847656 -5.29097656 7.86648437 -5.29296875 6.90625 C-5.29707764 6.04966797 -5.30118652 5.19308594 -5.30541992 4.31054688 C-4.88578811 0.64309139 -3.52235711 0.21565452 0 0 Z " fill="#A04AFF" transform="translate(117.0625,134.8125)"/>
<path d="M0 0 C0.99 0 1.98 0 3 0 C4.60725635 3.21451269 4.05748185 6.43612536 4 10 C6.97 10 9.94 10 13 10 C13 11.32 13 12.64 13 14 C12 15 12 15 10.15234375 15.09765625 C8.1015625 15.06510417 6.05078125 15.03255208 4 15 C4.020625 16.27875 4.04125 17.5575 4.0625 18.875 C4.125 22.75 4.125 22.75 3 25 C1.68 24.67 0.36 24.34 -1 24 C-1 21.03 -1 18.06 -1 15 C-2.27875 15.020625 -3.5575 15.04125 -4.875 15.0625 C-8.75 15.125 -8.75 15.125 -11 14 C-10.67 12.68 -10.34 11.36 -10 10 C-7.03 10 -4.06 10 -1 10 C-1.020625 8.535625 -1.04125 7.07125 -1.0625 5.5625 C-1.08392007 4.04167482 -1.07179964 2.51928038 -1 1 C-0.67 0.67 -0.34 0.34 0 0 Z " fill="#A95DFD" transform="translate(68,72)"/>
<path d="M0 0 C1.65 0 3.3 0 5 0 C5.625 2.375 5.625 2.375 6 5 C5.34 5.66 4.68 6.32 4 7 C1.875 6.625 1.875 6.625 0 6 C-1.125 2.25 -1.125 2.25 0 0 Z " fill="#A555FD" transform="translate(128,90)"/>
<path d="M0 0 C1.67542976 0.28604898 3.34385343 0.61781233 5 1 C4.67 2.65 4.34 4.3 4 6 C2.125 6.625 2.125 6.625 0 7 C-0.66 6.34 -1.32 5.68 -2 5 C-1.46428571 1.46428571 -1.46428571 1.46428571 0 0 Z " fill="#A352FD" transform="translate(120,81)"/>
<path d="M0 0 C2.125 0.375 2.125 0.375 4 1 C4.625 2.875 4.625 2.875 5 5 C4.34 5.66 3.68 6.32 3 7 C0.875 6.625 0.875 6.625 -1 6 C-1.625 4.125 -1.625 4.125 -2 2 C-1.34 1.34 -0.68 0.68 0 0 Z " fill="#A04BFE" transform="translate(138,81)"/>
<path d="M0 0 C2.125 0.375 2.125 0.375 4 1 C4.625 2.875 4.625 2.875 5 5 C4.34 5.66 3.68 6.32 3 7 C0.875 6.625 0.875 6.625 -1 6 C-1.625 4.125 -1.625 4.125 -2 2 C-1.34 1.34 -0.68 0.68 0 0 Z " fill="#A04AFE" transform="translate(129,72)"/>
</svg>
